<svg xmlns="http://www.w3.org/2000/svg" xmlns:xlink="http://www.w3.org/1999/xlink" width="2000" zoomAndPan="magnify" viewBox="0 0 1500 1499.999933" height="2000" preserveAspectRatio="xMidYMid meet" version="1.0"><defs><clipPath id="ead48336b3"><path d="M 172.648438 150 L 1399.480469 150 L 1399.480469 1376.832031 L 172.648438 1376.832031 Z M 172.648438 150 " clip-rule="nonzero"/></clipPath><clipPath id="0e1bef6ccf"><path d="M 786.066406 150 C 447.285156 150 172.648438 424.636719 172.648438 763.414062 C 172.648438 1102.195312 447.285156 1376.832031 786.066406 1376.832031 C 1124.84375 1376.832031 1399.480469 1102.195312 1399.480469 763.414062 C 1399.480469 424.636719 1124.84375 150 786.066406 150 Z M 786.066406 150 " clip-rule="nonzero"/></clipPath><clipPath id="f8b8cf296d"><path d="M 0.648438 0 L 1227.480469 0 L 1227.480469 1226.832031 L 0.648438 1226.832031 Z M 0.648438 0 " clip-rule="nonzero"/></clipPath><clipPath id="34b73b7f36"><path d="M 614.066406 0 C 275.285156 0 0.648438 274.636719 0.648438 613.414062 C 0.648438 952.195312 275.285156 1226.832031 614.066406 1226.832031 C 952.84375 1226.832031 1227.480469 952.195312 1227.480469 613.414062 C 1227.480469 274.636719 952.84375 0 614.066406 0 Z M 614.066406 0 " clip-rule="nonzero"/></clipPath><clipPath id="87ae5a4995"><rect x="0" width="1228" y="0" height="1227"/></clipPath><clipPath id="3a7ff46bad"><path d="M 376.335938 350.269531 L 1336.558594 350.269531 L 1336.558594 1310.492188 L 376.335938 1310.492188 Z M 376.335938 350.269531 " clip-rule="nonzero"/></clipPath><clipPath id="573d83a5f8"><path d="M 856.445312 350.269531 C 591.289062 350.269531 376.335938 565.222656 376.335938 830.382812 C 376.335938 1095.539062 591.289062 1310.492188 856.445312 1310.492188 C 1121.605469 1310.492188 1336.558594 1095.539062 1336.558594 830.382812 C 1336.558594 565.222656 1121.605469 350.269531 856.445312 350.269531 Z M 856.445312 350.269531 " clip-rule="nonzero"/></clipPath><clipPath id="8c1762d76e"><path d="M 0.335938 0.269531 L 960.558594 0.269531 L 960.558594 960.492188 L 0.335938 960.492188 Z M 0.335938 0.269531 " clip-rule="nonzero"/></clipPath><clipPath id="ae819ff8e5"><path d="M 480.445312 0.269531 C 215.289062 0.269531 0.335938 215.222656 0.335938 480.382812 C 0.335938 745.539062 215.289062 960.492188 480.445312 960.492188 C 745.605469 960.492188 960.558594 745.539062 960.558594 480.382812 C 960.558594 215.222656 745.605469 0.269531 480.445312 0.269531 Z M 480.445312 0.269531 " clip-rule="nonzero"/></clipPath><clipPath id="bd214432d7"><rect x="0" width="961" y="0" height="961"/></clipPath><clipPath id="b74bd680eb"><path d="M 833 386 L 1307 386 L 1307 1269 L 833 1269 Z M 833 386 " clip-rule="nonzero"/></clipPath><clipPath id="3582befbd9"><path d="M 1350.167969 428.523438 L 1258.992188 1310.929688 L 833.578125 1266.976562 L 924.75 384.570312 Z M 1350.167969 428.523438 " clip-rule="nonzero"/></clipPath><clipPath id="0d50d0050c"><path d="M 833.621094 1266.539062 C 1065.339844 1290.480469 1279.746094 1110.085938 1304.515625 870.339844 C 1329.289062 630.59375 1156.296875 410.171875 924.578125 386.230469 L 899.324219 630.632812 C 1002.378906 641.28125 1079.316406 739.308594 1068.300781 845.933594 C 1057.28125 952.558594 961.929688 1032.785156 858.875 1022.136719 Z M 833.621094 1266.539062 " clip-rule="nonzero"/></clipPath><clipPath id="0cf5bdf480"><path d="M 0.519531 0.160156 L 474 0.160156 L 474 883 L 0.519531 883 Z M 0.519531 0.160156 " clip-rule="nonzero"/></clipPath><clipPath id="0c019acecd"><path d="M 517.167969 42.523438 L 425.992188 924.929688 L 0.578125 880.976562 L 91.75 -1.429688 Z M 517.167969 42.523438 " clip-rule="nonzero"/></clipPath><clipPath id="f3fa003b8b"><path d="M 0.621094 880.539062 C 232.339844 904.480469 446.746094 724.085938 471.515625 484.339844 C 496.289062 244.59375 323.296875 24.171875 91.578125 0.230469 L 66.324219 244.632812 C 169.378906 255.28125 246.316406 353.308594 235.300781 459.933594 C 224.28125 566.558594 128.929688 646.785156 25.875 636.136719 Z M 0.621094 880.539062 " clip-rule="nonzero"/></clipPath><clipPath id="9caf32cc72"><rect x="0" width="474" y="0" height="883"/></clipPath></defs><g clip-path="url(#ead48336b3)"><g clip-path="url(#0e1bef6ccf)"><g transform="matrix(1, 0, 0, 1, 172, 150)"><g clip-path="url(#87ae5a4995)"><g clip-path="url(#f8b8cf296d)"><g clip-path="url(#34b73b7f36)"><path fill="#000000" d="M 0.648438 0 L 1227.480469 0 L 1227.480469 1226.832031 L 0.648438 1226.832031 Z M 0.648438 0 " fill-opacity="1" fill-rule="nonzero"/></g></g></g></g></g></g><g clip-path="url(#3a7ff46bad)"><g clip-path="url(#573d83a5f8)"><g transform="matrix(1, 0, 0, 1, 376, 350)"><g clip-path="url(#bd214432d7)"><g clip-path="url(#8c1762d76e)"><g clip-path="url(#ae819ff8e5)"><path fill="#ffffff" d="M 0.335938 0.269531 L 960.558594 0.269531 L 960.558594 960.492188 L 0.335938 960.492188 Z M 0.335938 0.269531 " fill-opacity="1" fill-rule="nonzero"/></g></g></g></g></g></g><g clip-path="url(#b74bd680eb)"><g clip-path="url(#3582befbd9)"><g clip-path="url(#0d50d0050c)"><g transform="matrix(1, 0, 0, 1, 833, 386)"><g clip-path="url(#9caf32cc72)"><g clip-path="url(#0cf5bdf480)"><g clip-path="url(#0c019acecd)"><g clip-path="url(#f3fa003b8b)"><path fill="#000000" d="M 516.996094 44.1875 L 425.992188 924.929688 L 0.578125 880.976562 L 91.578125 0.230469 Z M 516.996094 44.1875 " fill-opacity="1" fill-rule="nonzero"/></g></g></g></g></g></g></g></g></svg>